<svg width="145" height="79" xmlns="http://www.w3.org/2000/svg" xmlns:xlink="http://www.w3.org/1999/xlink"><defs><path id="a" d="M.033.067h78.79v72.9H.033z"/><path id="c" d="M.324.093h144.18v63.422H.323z"/></defs><g fill="none" fill-rule="evenodd"><path d="M111.115 25.533a9.147 9.147 0 0 1-5.585 1.88c-4.898 0-8.884-3.774-8.884-8.413s3.986-8.412 8.884-8.412c2.115 0 4.059.706 5.585 1.879L113 10.624C110.988 8.99 108.38 8 105.53 8 99.162 8 94 12.925 94 19s5.162 11 11.53 11c2.85 0 5.458-.99 7.47-2.624l-1.885-1.843M77.5 45c.827 0 1.5-.673 1.5-1.5s-.673-1.5-1.5-1.5-1.5.673-1.5 1.5.673 1.5 1.5 1.5" fill="#FFFFFE"/><g transform="translate(0 6)"><mask id="b" fill="#fff"><use xlink:href="#a"/></mask><path fill="#FFFFFE" mask="url(#b)" d="M76.176 64.763h2.647V41.907h-2.647zM10.885 20.206c-4.442 0-8.06-3.696-8.237-8.415v-.357c0-4.785 3.695-8.68 8.237-8.68 4.54 0 8.236 3.895 8.236 8.68 0 4.837-3.695 8.772-8.236 8.772zm10.884-8.772C21.77 5.166 16.886.067 10.885.067 7.667.067 4.7 1.485 2.648 3.98V.067H0V31.16h2.648V18.935c2.07 2.524 5.037 3.959 8.237 3.959 6 0 10.884-5.14 10.884-11.46zM23.435 53.275c0-4.786 3.694-8.68 8.236-8.68 4.542 0 8.237 3.894 8.237 8.68v.357c-.178 4.718-3.796 8.414-8.237 8.414-4.542 0-8.236-3.935-8.236-8.771zm8.236 11.46c3.2 0 6.167-1.435 8.237-3.96v3.986h2.647V41.907h-2.647v3.914c-2.053-2.495-5.02-3.914-8.237-3.914-6.002 0-10.885 5.1-10.885 11.368 0 6.318 4.883 11.46 10.885 11.46zM60.404 62.046c-4.44 0-8.059-3.696-8.236-8.414v-.357c0-4.786 3.695-8.68 8.236-8.68 4.542 0 8.237 3.894 8.237 8.68 0 4.836-3.695 8.77-8.237 8.77zm10.885-8.771c0-6.269-4.883-11.368-10.885-11.368-3.217 0-6.184 1.419-8.236 3.914v-3.914H49.52V73h2.648V60.776c2.07 2.524 5.037 3.958 8.236 3.958 6.002 0 10.885-5.14 10.885-11.46z"/></g><path d="M40.41 8v12.992c0 3.582-2.846 6.421-6.473 6.465-3.583-.044-6.39-2.883-6.39-6.465V8H25v12.992C25 25.96 29.008 30 33.934 30 38.933 30 43 25.96 43 20.992V8h-2.59M69.324 18.43c0 4.858-3.735 8.808-8.324 8.808-4.59 0-8.324-3.95-8.324-8.807v-.362c.18-4.788 3.835-8.54 8.324-8.54 4.59 0 8.324 3.994 8.324 8.902zM61 6.803c-3.233 0-6.232 1.456-8.324 4.017V0H50v30h2.676v-4.005c2.074 2.532 5.073 3.971 8.324 3.971 6.065 0 11-5.174 11-11.535 0-6.412-4.935-11.629-11-11.629zM88.5 3c.827 0 1.5-.673 1.5-1.5S89.327 0 88.5 0 87 .673 87 1.5 87.673 3 88.5 3M87 30h3V8h-3zM121.5 3c.827 0 1.5-.673 1.5-1.5s-.673-1.5-1.5-1.5-1.5.673-1.5 1.5.673 1.5 1.5 1.5M120 30h3V8h-3zM121 48a8.958 8.958 0 0 0-6.49 2.77V48H112v22h2.51V56.97c.085-3.543 2.997-6.426 6.49-6.426 3.555 0 6.447 2.88 6.447 6.42V70H130V56.965c0-4.943-4.037-8.965-9-8.965M143.869 67.442l-.262.071c-.25.07-.674.151-1.278.151-1.059 0-1.51-.673-1.51-2.253v-15.29h3.105v-2.58h-3.106V40h-2.695v7.541H135v2.58h3.123v15.37c0 1.687.303 2.788.947 3.46.599.687 1.517 1.049 2.655 1.049.855 0 1.61-.118 2.13-.334l.145-.06-.131-2.164M95.045 50.546a8.273 8.273 0 0 1 8.097 6.565H86.818c.895-3.88 4.242-6.565 8.227-6.565zm6.977 13.117c-1.46 2.339-4.13 3.791-6.977 3.791-4.425 0-8.073-3.426-8.4-7.841h18.04c.737 0 1.315-.52 1.315-1.184v-.194C105.528 52.4 100.82 48 95.044 48 88.955 48 84 52.954 84 59.045 84 65.085 88.955 70 95.045 70c3.72 0 7.145-1.851 9.17-4.953l-2.193-1.384z" fill="#FFFFFE"/><g transform="translate(0 8)"><mask id="d" fill="#fff"><use xlink:href="#c"/></mask><path d="M14.7 52.696s-.688-.533-1.431-.844c-.743-.31-1.81-.671-4.016-1.208-.3-.074-.591-.134-.866-.204-1.477-.368-2.643-.864-3.465-1.475-.816-.701-1.12-1.282-1.086-2.07.036-.832.538-1.642 1.413-2.277.998-.735 2.453-1.1 4.096-1.029 1.866.082 3.287 1.01 4.82 2.123l.146.107 1.928-1.784c-.235-.218-.28-.254-.921-.695-1.514-1.02-3.373-2.097-5.865-2.205-2.167-.094-4.1.347-5.596 1.28-1.622 1.091-2.647 2.681-2.668 4.365-.016 1.254.245 2.43 1.505 3.638 1.507 1.444 3.85 2.204 5.995 2.617 1.84.355 3.54 1.03 4.393 1.738 1.022.932 1.384 1.61 1.385 2.58-.041.93-.651 1.817-1.693 2.446-1.045.778-2.539 1.184-4.1 1.117-2.05-.09-4.175-.98-6.313-2.646l-.147-.115-1.89 1.723.188.162c2.49 2.14 5.198 3.305 8.05 3.464 2.135.093 3.998-.412 5.698-1.546 1.762-1.21 2.732-2.763 2.809-4.491.08-1.838-.828-3.666-2.37-4.771M142.13 11.666s-.687-.533-1.431-.843c-.743-.311-1.809-.671-4.016-1.209-.3-.073-.591-.134-.867-.204-1.476-.367-2.641-.863-3.464-1.475-.816-.701-1.121-1.282-1.086-2.07.036-.832.538-1.641 1.413-2.277.998-.735 2.452-1.1 4.096-1.028 1.866.08 3.287 1.01 4.82 2.122l.146.107 1.928-1.783c-.235-.219-.279-.255-.922-.695-1.513-1.02-3.372-2.097-5.864-2.206-2.167-.094-4.1.347-5.595 1.28-1.623 1.091-2.648 2.682-2.67 4.365-.015 1.254.246 2.43 1.506 3.638 1.507 1.444 3.85 2.205 5.996 2.618 1.838.354 3.539 1.03 4.393 1.737 1.022.933 1.384 1.61 1.384 2.58-.041.93-.652 1.817-1.693 2.446-1.045.778-2.539 1.185-4.099 1.117-2.051-.09-4.176-.98-6.313-2.646l-.148-.115-1.89 1.723.188.163c2.49 2.138 5.197 3.304 8.05 3.463 2.136.093 3.999-.412 5.699-1.545 1.76-1.212 2.731-2.764 2.807-4.492.081-1.837-.826-3.665-2.369-4.771" fill="#FFFFFE" mask="url(#d)"/></g><path fill="#FFFFFE" d="M76 30h3V0h-3z"/></g></svg>